<svg xmlns="http://www.w3.org/2000/svg" xmlns:xlink="http://www.w3.org/1999/xlink" version="1.1" x="0px" y="0px" viewBox="0 0 100 100" style="enable-background:new 0 0 100 100;" xml:space="preserve"><style type="text/css">
	.st0{fill:none;}
</style><g><path d="M87.49,23.49c-1.62-1.62-3.78-2.51-6.07-2.51H18.58c-2.29,0-4.45,0.89-6.07,2.51S10,27.27,10,29.56v42.13   c0,2.29,0.89,4.44,2.51,6.07c1.62,1.62,3.78,2.51,6.07,2.51h62.84c2.29,0,4.45-0.89,6.07-2.51c1.62-1.63,2.51-3.78,2.51-6.07V29.56   C90,27.27,89.11,25.11,87.49,23.49z M86.92,54.07L73.37,40.51c-1.11-1.1-2.58-1.71-4.14-1.71s-3.03,0.61-4.14,1.71L54.42,51.19   c-0.33,0.32-0.76,0.5-1.21,0.5c-0.46,0-0.89-0.18-1.22-0.5l-4.58-4.59c-2.11-2.11-5.46-2.29-7.8-0.43L13.08,67.4V29.56   c0-3.03,2.47-5.5,5.5-5.5h62.84c3.03,0,5.5,2.47,5.5,5.5V54.07z"/></g><g><circle cx="22.474" cy="34.028" r="5.096"/></g></svg>